HIERARCHY
ROOT RootJoint
{
    OFFSET   0.000000   0.000000   0.000000
    CHANNELS 6 Xposition Yposition Zposition Xrotation Yrotation Zrotation
    JOINT pelvis_lowerback
    {
        OFFSET   0.000000   0.093605   0.000000
        CHANNELS 3 Xrotation Yrotation Zrotation
        JOINT lowerback_torso
        {
            OFFSET   0.000000   0.100000   0.000000
            CHANNELS 3 Xrotation Yrotation Zrotation
            JOINT torso_head
            {
                OFFSET   0.000000   0.282350   0.000000
                CHANNELS 3 Xrotation Yrotation Zrotation
                End Site
                {
                    OFFSET   0.000000   0.192650   0.000000
                }
            }
            JOINT rTorso_Clavicle
            {
                OFFSET  -0.001000   0.157500   0.000000
                CHANNELS 3 Xrotation Yrotation Zrotation
                JOINT rShoulder
                {
                    OFFSET  -0.117647   0.000000   0.000000
                    CHANNELS 3 Xrotation Yrotation Zrotation
                    JOINT rElbow
                    {
                        OFFSET  -0.245000   0.000000   0.000000
                        CHANNELS 3 Xrotation Yrotation Zrotation
                        JOINT rWrist
                        {
                            OFFSET  -0.240000   0.000000   0.000000
                            CHANNELS 3 Xrotation Yrotation Zrotation
                            End Site
                            {
                                OFFSET  -0.116353  -0.002500   0.000000
                            }
                        }
                    }
                }
            }
            JOINT lTorso_Clavicle
            {
                OFFSET   0.001000   0.157500   0.000000
                CHANNELS 3 Xrotation Yrotation Zrotation
                JOINT lShoulder
                {
                    OFFSET   0.117647   0.000000   0.000000
                    CHANNELS 3 Xrotation Yrotation Zrotation
                    JOINT lElbow
                    {
                        OFFSET   0.245000   0.000000   0.000000
                        CHANNELS 3 Xrotation Yrotation Zrotation
                        JOINT lWrist
                        {
                            OFFSET   0.240000   0.000000   0.000000
                            CHANNELS 3 Xrotation Yrotation Zrotation
                            End Site
                            {
                                OFFSET   0.116353  -0.002500   0.000000
                            }
                        }
                    }
                }
            }
        }
    }
    JOINT rHip
    {
        OFFSET  -0.100000  -0.051395   0.000000
        CHANNELS 3 Xrotation Yrotation Zrotation
        JOINT rKnee
        {
            OFFSET   0.000000  -0.410000   0.000000
            CHANNELS 3 Xrotation Yrotation Zrotation
            JOINT rAnkle
            {
                OFFSET   0.000000  -0.390000   0.000000
                CHANNELS 3 Xrotation Yrotation Zrotation
                JOINT rToeJoint
                {
                    OFFSET   0.000000  -0.050000   0.130000
                    CHANNELS 3 Xrotation Yrotation Zrotation
                    End Site
                    {
                        OFFSET  -0.010000   0.002000   0.060000
                    }
                }
            }
        }
    }
    JOINT lHip
    {
        OFFSET   0.100000  -0.051395   0.000000
        CHANNELS 3 Xrotation Yrotation Zrotation
        JOINT lKnee
        {
            OFFSET   0.000000  -0.410000   0.000000
            CHANNELS 3 Xrotation Yrotation Zrotation
            JOINT lAnkle
            {
                OFFSET   0.000000  -0.390000   0.000000
                CHANNELS 3 Xrotation Yrotation Zrotation
                JOINT lToeJoint
                {
                    OFFSET   0.000000  -0.050000   0.130000
                    CHANNELS 3 Xrotation Yrotation Zrotation
                    End Site
                    {
                        OFFSET   0.010000   0.002000   0.060000
                    }
                }
            }
        }
    }
}
MOTION
Frames: 5
Frame Time:   0.008333
 -2.360121   1.027869   4.354630  -0.220539   3.294735  -0.881915  16.395521   1.948174   3.048485  -1.376935  -1.636084   1.025244  -0.583248  -2.145473  -0.804132   4.650285   3.766500   4.349048   3.828845   4.844081  45.890200   0.000221  20.252081  -0.000446   0.409775   2.660955  -4.335725   4.548584  -3.223329  -6.723510  -0.210292  -8.986903 -44.568630  -0.000950 -20.812589   0.004097  -1.438496  -7.800995   6.789383 -21.867276  -4.243391  -3.605103  59.069640  -0.000486   0.000088  13.509911  -7.547336   6.676322  -2.501439  -0.002857   0.000753  -4.211283  -0.471572   4.247875  40.343480   0.013765   0.012580  26.668401   1.106650  -1.018262  -8.603617   0.032563   0.004610
 -2.360595   1.032392   4.361983  -0.546919   3.397150  -0.625928  16.750385   2.037314   2.749448  -1.168998  -1.642568   0.967867  -0.774403  -2.105618  -0.787611   4.448566   3.725496   4.686820   3.932743   4.647102  45.914659   0.000341  20.334135  -0.000439   0.467083   2.460849  -4.117555   4.545120  -3.039474  -6.894953  -0.116526  -8.540253 -44.654809  -0.000819 -20.788555   0.003386  -1.393581  -7.767869   6.584226 -21.660780  -4.326963  -3.801961  57.644663   0.000969  -0.000094  13.213893  -7.454040   6.619091  -2.216468  -0.003016   0.001435  -4.962727  -0.124876   4.023094  40.913209   0.012680   0.011892  24.346183   1.089434  -1.218106  -7.714970   0.031374   0.005025
 -2.361121   1.036296   4.368919  -0.805218   3.440215  -0.390145  17.157016   2.138581   2.446934  -0.975217  -1.620171   0.909454  -0.972746  -2.072755  -0.771213   4.214120   3.726102   4.980849   3.990460   4.490301  45.922521   0.000435  20.429678  -0.000495   0.513304   2.338875  -3.962111   4.547692  -2.854475  -7.009772  -0.019744  -8.108296 -44.712021  -0.000715 -20.762653   0.002799  -1.358868  -7.717069   6.392962 -21.541676  -4.421859  -3.970000  56.032796   0.002973   0.000345  12.914771  -7.364352   6.566039  -2.027583  -0.003025   0.001684  -5.795960   0.207217   3.809411  41.292061   0.011141   0.010495  22.161138   1.082781  -1.404746  -6.978476   0.029060   0.004765
 -2.361667   1.039493   4.375637  -1.057476   3.448939  -0.167491  17.603764   2.254390   2.150188  -0.755452  -1.575145   0.849909  -1.149955  -2.043326  -0.757304   3.972850   3.750397   5.235630   4.025291   4.359523  45.915647   0.000495  20.528493  -0.000603   0.561069   2.274661  -3.846282   4.551490  -2.677347  -7.090982   0.074068  -7.699226 -44.748162  -0.000631 -20.735206   0.002318  -1.327074  -7.648276   6.231179 -21.465567  -4.517626  -4.121834  54.444852   0.004820   0.001088  12.630544  -7.279771   6.517152  -1.867255  -0.002972   0.001765  -6.644287   0.515147   3.605181  41.589192   0.009614   0.009023  20.117721   1.084445  -1.578113  -6.316785   0.026438   0.004255
 -2.362222   1.041953   4.382262  -1.318577   3.442316   0.041827  18.073019   2.378365   1.865776  -0.511427  -1.515745   0.791383  -1.306060  -2.016214  -0.744980   3.736660   3.784283   5.460078   4.048743   4.244428  45.898570   0.000526  20.625027  -0.000723   0.609400   2.239658  -3.756741   4.558878  -2.505959  -7.153038   0.166041  -7.311575 -44.772030  -0.000564 -20.706410   0.001925  -1.297779  -7.564411   6.092325 -21.410779  -4.611601  -4.259923  52.937719   0.006218   0.001833  12.363664  -7.200429   6.471997  -1.725352  -0.002862   0.001751  -7.483059   0.800343   3.415626  41.839243   0.008229   0.007671  18.208818   1.092569  -1.739090  -5.715777   0.023786   0.003691
